<svg viewBox="0 0 105 23" fill="none" xmlns="http://www.w3.org/2000/svg">
<path d="M1 11.0293C2.40259 9.05596 6.3857 4.0285 13.5079 1.92158C18.1407 0.555422 22.0328 1.0351 24.1397 1.3144C31.5352 2.30411 36.5687 5.93505 38.5238 7.38621C43.7213 11.2297 42.938 12.9784 48.5302 17.1011C52.2279 19.8274 55.6463 22.3411 60.4127 22.5658C65.8773 22.8208 70.2308 19.9184 73.546 17.7083C78.5006 14.4052 77.7781 12.9966 82.3016 10.4221C87.4809 7.47729 92.5326 6.9794 94.8095 6.77903C97.214 6.56652 99.3816 6.63331 101.24 6.82761" stroke="white" stroke-width="0.607181" stroke-linecap="round" stroke-linejoin="round" stroke-dasharray="3.04 3.04"/>
<path d="M99.23 8.83736L100.499 6.74865L99.8797 4.38672L104.828 7.3862L99.23 8.83736Z" fill="white"/>
</svg>
