<svg width="20" height="20" viewBox="0 0 20 20" fill="none" xmlns="http://www.w3.org/2000/svg">
<g clip-path="url(#clip0)">
<path d="M9.96336 9.20043L8.76928 10.3075C8.76928 10.3075 4.20077 7.19175 3.39849 5.20174C3.39849 5.20174 2.96851 4.45326 3.52442 3.92722L3.52233 3.92428C4.09147 3.40289 4.86034 3.84737 4.86034 3.84737C6.89813 4.69533 9.96336 9.20043 9.96336 9.20043Z" fill="#7B49D7"/>
</g>
<g clip-path="url(#clip1)">
<path d="M11.012 10.3644L9.89454 9.18004C9.89454 9.18004 12.9703 4.58451 14.9532 3.76489C14.9532 3.76489 15.6979 3.3284 16.2288 3.8797L16.2317 3.87758C16.7581 4.44216 16.3203 5.21488 16.3203 5.21488C15.4902 7.25999 11.012 10.3644 11.012 10.3644Z" fill="#7B49D7"/>
</g>
<g clip-path="url(#clip2)">
<path d="M9.82246 11.4316L10.997 10.3039C10.997 10.3039 15.6192 13.3394 16.4561 15.3151C16.4561 15.3151 16.8991 16.056 16.3524 16.5916L16.3546 16.5945C15.7946 17.1258 15.0181 16.6948 15.0181 16.6948C12.9658 15.8825 9.82246 11.4316 9.82246 11.4316Z" fill="#7B49D7"/>
</g>
<g clip-path="url(#clip3)">
<path d="M8.78221 10.1973L9.88928 11.3914C9.88928 11.3914 6.77353 15.9599 4.78352 16.7622C4.78352 16.7622 4.03504 17.1921 3.50901 16.6362L3.50607 16.6383C2.98467 16.0692 3.42916 15.3003 3.42916 15.3003C4.27712 13.2625 8.78221 10.1973 8.78221 10.1973Z" fill="#7B49D7"/>
</g>
<path d="M9.9812 1.00073C10.5953 3.20109 13.2357 8.0777 18.885 9.98127" stroke="#7B49D7" stroke-width="0.385713"/>
<path d="M18.8447 9.94287C16.6554 10.5952 11.8256 13.3204 10.021 19.002" stroke="#7B49D7" stroke-width="0.385713"/>
<path d="M9.94287 18.9243C9.32882 16.724 6.68839 11.8473 1.03909 9.94378" stroke="#7B49D7" stroke-width="0.385713"/>
<path d="M1.07764 9.98169C3.27255 9.34846 8.12594 6.66557 9.98013 0.999881" stroke="#7B49D7" stroke-width="0.385713"/>
<defs>
<clipPath id="clip0">
<rect width="6.60108" height="6.75459" fill="white" transform="translate(3.21533 3.69727) rotate(-1.5)"/>
</clipPath>
<clipPath id="clip1">
<rect width="6.60108" height="6.75459" fill="white" transform="translate(16.4565 3.56787) rotate(88)"/>
</clipPath>
<clipPath id="clip2">
<rect width="6.60108" height="6.75459" fill="white" transform="translate(16.6653 16.8167) rotate(177.5)"/>
</clipPath>
<clipPath id="clip3">
<rect width="6.60108" height="6.75459" fill="white" transform="translate(3.27856 16.9458) rotate(-91.5)"/>
</clipPath>
</defs>
</svg>
