<svg viewBox="0 0 27 26" fill="none" xmlns="http://www.w3.org/2000/svg">
<path d="M4.81226 4.5324C7.20817 7.44709 9.5017 9.12628 10.273 8.62799C11.0341 8.13652 10.4676 5.41295 8.90784 2.14331" stroke="white" stroke-width="0.341299" stroke-miterlimit="10"/>
<path d="M8.74756 1.83632C9.92504 5.41995 11.4541 7.81587 12.3517 7.63157C13.2425 7.45068 13.6998 4.70664 13.4302 1.09229" stroke="white" stroke-width="0.341299" stroke-miterlimit="10"/>
<path d="M1.97974 8.60072C5.39955 10.1946 8.19137 10.7202 8.6726 9.94202C9.14701 9.17069 7.46099 6.95566 4.64528 4.6792" stroke="white" stroke-width="0.341299" stroke-miterlimit="10"/>
<path d="M1 13.4539C4.76794 13.6416 7.55293 13.0751 7.70311 12.1706C7.85328 11.2764 5.45736 9.86346 1.98635 8.81567" stroke="white" stroke-width="0.341299" stroke-miterlimit="10"/>
<path d="M22.3993 4.81226C19.4846 7.20817 17.8054 9.49829 18.3003 10.2696C18.7918 11.0341 21.5153 10.4676 24.785 8.90784" stroke="white" stroke-width="0.341299" stroke-miterlimit="10"/>
<path d="M25.0957 8.75098C21.5121 9.92504 19.1127 11.4541 19.297 12.3517C19.4779 13.2425 22.222 13.6998 25.8363 13.4336" stroke="white" stroke-width="0.341299" stroke-miterlimit="10"/>
<path d="M18.3347 1.97949C16.7375 5.39589 16.2119 8.19113 16.99 8.67236C17.7614 9.15018 19.9764 7.46416 22.2528 4.64503" stroke="white" stroke-width="0.341299" stroke-miterlimit="10"/>
<path d="M13.4814 1C13.2903 4.76794 13.8568 7.55293 14.7613 7.70652C15.6555 7.85669 17.0718 5.46077 18.1196 1.99318" stroke="white" stroke-width="0.341299" stroke-miterlimit="10"/>
<path d="M4.97974 22.2424C7.37565 19.3277 9.66918 17.6485 10.4405 18.1468C11.2016 18.6383 10.6351 21.3618 9.07532 24.6315" stroke="white" stroke-width="0.341299" stroke-miterlimit="10"/>
<path d="M8.91504 24.9387C10.0925 21.3551 11.6215 18.9592 12.5192 19.1435C13.4099 19.3244 13.8673 22.0684 13.5977 25.6828" stroke="white" stroke-width="0.341299" stroke-miterlimit="10"/>
<path d="M2.14331 18.1742C5.56312 16.5803 8.35495 16.0547 8.83618 16.8329C9.31058 17.6042 7.62457 19.8193 4.80885 22.0957" stroke="white" stroke-width="0.341299" stroke-miterlimit="10"/>
<path d="M1.16748 13.3208C4.93542 13.1331 7.72041 13.6996 7.87059 14.6041C8.02076 15.4983 5.62484 16.9113 2.15383 17.959" stroke="white" stroke-width="0.341299" stroke-miterlimit="10"/>
<path d="M22.5668 21.9626C19.6521 19.5667 17.9729 17.2766 18.4678 16.5053C18.9592 15.7408 21.6828 16.3073 24.9524 17.8671" stroke="white" stroke-width="0.341299" stroke-miterlimit="10"/>
<path d="M25.2593 18.0241C21.6756 16.85 19.2763 15.321 19.4606 14.4234C19.6415 13.5326 22.3855 13.0753 25.9999 13.3415" stroke="white" stroke-width="0.341299" stroke-miterlimit="10"/>
<path d="M18.4988 24.7988C16.9015 21.3824 16.3759 18.5872 17.1541 18.106C17.9254 17.6282 20.1404 19.3142 22.4169 22.1333" stroke="white" stroke-width="0.341299" stroke-miterlimit="10"/>
<path d="M13.645 25.7781C13.4538 22.0102 14.0204 19.2252 14.9248 19.0716C15.819 18.9215 17.2354 21.3174 18.2832 24.785" stroke="white" stroke-width="0.341299" stroke-miterlimit="10"/>
</svg>
